<svg enable-background="new 43.5 434.3 959.9 125.7" height="114.564392" viewBox="43.5 434.3 959.9 125.7" width="872.871561" xmlns="http://www.w3.org/2000/svg"><g fill="#2b3a4d"><path d="m314.6 515.3c-8.1 2-11.1 3.1-13.6 4.9-3 2.3-4.4 4.9-4.4 8.5 0 5.8 4.8 10 11.5 10 6.2 0 13.3-3.1 17.1-7.4 3.1-3.6 4.8-8.8 4.8-14.8 0-1.5-.1-4.4-.3-7-5.9 2.9-8.7 4-15.1 5.8zm58.1 28.8c-1 1.6-2.3 3.1-4.1 4.6-4.9 4.4-10.2 4.8-16.3 4.6-10.7-.2-17.7-4.7-21.5-14.7-4.8 4.5-7.4 6.6-11.1 8.5-6.7 3.9-15.2 6-22.9 6-14.7 0-26.5-10.3-26.5-22.9 0-11.5 6.9-18.2 22.9-22.2 5.8-1.5 7.1-1.8 23.3-4.2 9.2-1.4 13.4-4.4 13.4-9.3 0-6.6-7-11.1-17-11.1-6.4 0-11.7 1.2-18.2 4.4 2.2 2.5 3.1 4.7 3.1 7.3 0 5.3-4.5 9-10.6 9-6.4 0-11.1-4.4-11.1-10.4 0-11.8 14.1-19.2 37.5-19.2 13.8 0 24.8 2.6 30.7 7.3 5.9 4.5 7.9 10.3 7.9 22.7v20.7c.1 8.1.1 8.1.1 9.9.3 3.9 2.3 6.7 6.9 6.9 6.4.3 9.5-5.1 10.3-11.6v-1.3-41.3h-12.9v-10.6c14.8-.8 25.5-10.8 25.4-23.8h10v23.8h20.3v10.6h-20.3v42.3c0 4.5 0 5.1.7 7 .8 2.5 2.8 4.1 5.3 4.1 3.9 0 5.3-2.6 5.3-9.5v-10.3h10v11.2c0 13-7.9 20.7-21.6 20.7-7.9 0-14.3-2.6-17.9-7.4-.3-.6-.7-1.2-1.1-1.8z"/><path d="m133.5 434.6c15.7 0 25 2.1 32.4 7 7.6 5.5 12.2 13.9 12.2 23 0 7.6-3.4 14.2-9.5 18.9-4.1 3-7.6 4.6-15.1 6.1 20 5.5 30.1 15.4 30.1 29.9 0 10.4-5.8 20.4-15.4 26.1-7.3 4.4-15.9 6.1-29.9 6.1h-94.8v-11.9l4.1-.2c13-.5 18.6-6.9 18.6-20.6v-51.9c0-13.9-5.6-20-18.6-20.6l-4.1-.2v-11.9h90zm-7.9 50c8.7 0 13-1.4 17.2-5.3 3.5-3.4 5.5-7.9 5.5-13.1 0-6.7-3.2-12.7-8.7-16.2-4.3-2.8-7.8-3.5-17.1-3.5h-27.9v38.2h31zm3.9 55.3c13 0 22.7-9.3 22.7-21.7 0-7.6-3.5-14.2-9.5-17.7-3.8-2.4-9.2-3.5-16.8-3.5h-31.3v42.9z"/><path d="m274.6 514.9c0 11.2-7 23.3-17.7 30.4-7.7 4.9-18.2 7.9-29.5 7.9-27.4 0-47.8-17-47.8-39.5 0-11.9 6.2-23.3 16.8-30.7 7.7-5.3 18.8-8.4 30.8-8.4 27.1.1 47.4 17.2 47.4 40.3zm-69-.7c0 17.1 8.9 28.9 21.5 28.9 6.6 0 12.6-3 16-7.9 3.6-5.3 5.8-13.4 5.8-21.1 0-17.4-8.9-29.6-21.6-29.6-12.7-.1-21.7 12.2-21.7 29.7z"/><path d="m582.2 478.6h-13.6c-.2-10.5-2.1-16.8-7.1-22.6-6.1-6.8-13.5-9.6-26.2-9.6h-9.1v70.4c0 9.7.9 13.6 4.1 17 3.2 3.3 7.9 5 14.1 5.3l5.6.2v11.8h-74v-11.8l4.2-.2c12.9-.5 18.5-6.7 18.5-20.5v-72.2h-12.3c-13.1 0-21.1 4.2-26.4 13.5-2.6 4.7-3.8 9.6-4.7 18.7h-13.5v-44h140.4z"/><path d="m605 493.3c8.4-13 17-18.6 28.4-18.6 10.6 0 18.3 7.2 18.3 17 0 7.3-5.1 12.7-12.6 12.7-6.1 0-10.2-3.7-10.2-9.4 0-1.1.1-2.1.8-3.9-5.5 0-7.7.4-11.6 2.8-8.3 4.8-11.9 12.8-11.9 26.1v5.8c0 11.3 3 14.9 12.4 14.9h3v10.6h-52.6v-10.6h2.3c9.4 0 12.4-3.6 12.4-14.9v-22.9c0-11.2-3-14.9-12.4-14.9h-3v-10.6h36.6z"/><path d="m702.6 509.6c.1 2.6.3 5.5.3 7 0 6.1-1.8 11.3-4.8 14.9-3.9 4.4-11 7.6-17.2 7.6-6.8 0-11.6-4.3-11.6-10.1 0-3.6 1.4-6.2 4.4-8.7 2.5-1.9 5.5-3 13.7-5 6.5-1.7 9.2-2.8 15.2-5.7zm34.2 11.3v10.1c0 7.2-1.9 10.5-5.9 10.5-3.2 0-4.8-2.1-5.1-5.9 0-1.8 0-1.8-.1-9.9v-20.7c0-12.6-2.1-18.3-8-22.9-5.9-4.7-17-7.3-30.9-7.3-23.5 0-37.8 7.3-37.8 19.3 0 6.1 4.7 10.5 11.2 10.5 6.1 0 10.6-3.7 10.6-9.1 0-2.6-1-4.8-3.2-7.3 6.6-3.2 11.9-4.4 18.3-4.4 10.1 0 17.1 4.6 17.1 11.2 0 5-4.3 8-13.5 9.4-16.3 2.5-17.7 2.6-23.5 4.3-16.1 4.1-23 10.8-23 22.5 0 12.7 11.9 23 26.6 23 7.7 0 16.3-2.2 23-6.1 3.6-2.1 6.2-4.1 11.2-8.7 3.7 10.1 10.8 14.8 21.7 14.8 7.2 0 13-2.1 16.8-5.9 3.2-3.2 4.3-6.8 4.3-13.1v-13.8z"/><path d="m778.2 487.3c11.7 0 18.8 10.8 18.8 28.8 0 15.3-7.3 25.5-18.3 25.5-11.5 0-19.3-11.5-19.3-28.3.1-15.2 7.7-26 18.8-26zm40.6-40.8h-38.4v10.6h3.4c9.2 0 12.4 3.7 12.4 14.9v16.1c-7.6-9-16-13-26.6-13-20.4 0-35.9 16.6-35.9 38.4 0 10.2 3.6 20.6 9.7 28 6.1 7.6 15.3 11.7 26.2 11.7 11.9 0 20-3.9 29-13.8v11.6h36.3v-10.6h-3.4c-9.4 0-12.6-3.7-12.6-14.9v-79z"/><path d="m852.5 508.3c.8-14.8 7.3-23 18.1-23 5.8 0 10.5 2.6 13.7 7.7 2.6 4.1 3.6 7.9 3.7 15.3zm47.6 19.1c-3.3 9.4-11.2 14.8-21.8 14.8-8.4 0-16.3-3.7-20.7-10.2-2.3-3.6-3.4-6.9-4.1-12.6h59.9c-.1-13.1-1.5-19.6-6.5-26.8-7.3-11.5-21.1-18.1-37.1-18.1-12.3 0-23.5 3.9-30.9 11-7.2 6.9-11.9 17.9-11.9 28 0 11.3 5.5 22.9 14.1 30.2 7.6 6.5 18.2 9.9 29.8 9.9 12.6 0 23.5-3.9 31.2-11.3 4.3-4.1 6.5-7.6 9.7-15h-11.8v.1z"/><path d="m944.9 493.3c8.4-13 17-18.6 28.4-18.6 10.6 0 18.3 7.2 18.3 17 0 7.3-5.1 12.7-12.6 12.7-6.1 0-10.2-3.7-10.2-9.4 0-1.1.1-2.1.8-3.9-5.5 0-7.7.4-11.6 2.8-8.3 4.8-11.9 12.8-11.9 26.1v5.8c0 11.3 3 14.9 12.4 14.9h3v10.6h-52.6v-10.6h2.3c9.4 0 12.4-3.6 12.4-14.9v-22.9c0-11.2-3-14.9-12.4-14.9h-3v-10.6h36.6z"/><path d="m1001.9 479.3c0 3-2 5-4.5 5s-4.5-2.1-4.5-5c0-3 2-5 4.5-5 2.4.1 4.5 2.2 4.5 5zm-5.6.6h.9l1.5 3.1h1.4l-1.6-3.1c.9-.1 1.6-.5 1.6-1.9 0-1.5-.9-2.1-2.6-2.1h-2.5v7.1h1.3zm0-3h1.1c1 0 1.3.2 1.3.9s-.3 1-1.3 1h-1.1zm1 8.9c3.3 0 6.1-2.5 6.1-6.4s-2.8-6.4-6.1-6.4c-3.2 0-6.1 2.5-6.1 6.4s2.9 6.4 6.1 6.4z"/></g></svg>